HIERARCHY
ROOT Hips
{
	OFFSET	0.00	0.00	0.00
	CHANNELS 6 Xposition Yposition Zposition Zrotation Xrotation Yrotation
	JOINT LeftUpLeg
	{
		OFFSET	 0.126116	-0.065224	 0.014019
		CHANNELS 3 Zrotation Xrotation Yrotation
		JOINT LeftLeg
		{
			OFFSET	 0.000000	 0.569914	 0.000000
			CHANNELS 3 Zrotation Xrotation Yrotation
			JOINT LeftFoot
			{
				OFFSET	 0.000000	 0.544423	 0.000000
				CHANNELS 3 Zrotation Xrotation Yrotation
				JOINT LeftToeBase
				{
					OFFSET	 0.000000	 0.207117	 0.000000
					CHANNELS 3 Zrotation Xrotation Yrotation
					End Site
					{
						OFFSET	 0.000000	 0.207117	 0.000000
					}
				}
			}
		}
	}
	JOINT RightUpLeg
	{
		OFFSET	-0.124023	-0.065224	 0.008373
		CHANNELS 3 Zrotation Xrotation Yrotation
		JOINT RightLeg
		{
			OFFSET	 0.000000	 0.570047	 0.000000
			CHANNELS 3 Zrotation Xrotation Yrotation
			JOINT RightFoot
			{
				OFFSET	 0.000000	 0.544354	 0.000000
				CHANNELS 3 Zrotation Xrotation Yrotation
				JOINT RightToeBase
				{
					OFFSET	 0.000000	 0.207540	 0.000000
					CHANNELS 3 Zrotation Xrotation Yrotation
					End Site
					{
						OFFSET	 0.000000	 0.207540	 0.000000
					}
				}
			}
		}
	}
	JOINT Spine
	{
		OFFSET	 0.000184	 0.117403	 0.007763
		CHANNELS 3 Zrotation Xrotation Yrotation
		JOINT Spine1
		{
			OFFSET	 0.000000	 0.137269	 0.000000
			CHANNELS 3 Zrotation Xrotation Yrotation
			JOINT Spine2
			{
				OFFSET	 0.000000	 0.156879	 0.000000
				CHANNELS 3 Zrotation Xrotation Yrotation
				JOINT LeftShoulder
				{
					OFFSET	 0.080501	 0.160143	 0.002496
					CHANNELS 3 Zrotation Xrotation Yrotation
					JOINT LeftArm
					{
						OFFSET	 0.000000	 0.164363	 0.000000
						CHANNELS 3 Zrotation Xrotation Yrotation
						JOINT LeftForeArm
						{
							OFFSET	 0.000000	 0.364576	 0.000000
							CHANNELS 3 Zrotation Xrotation Yrotation
							JOINT LeftHand
							{
								OFFSET	 0.000000	 0.360812	 0.000000
								CHANNELS 3 Zrotation Xrotation Yrotation
								JOINT LeftHandIndex1
								{
									OFFSET	 0.000000	 0.086006	 0.000000
									CHANNELS 3 Zrotation Xrotation Yrotation
									JOINT LeftHandIndex2
									{
										OFFSET	 0.000000	 0.047237	 0.000000
										CHANNELS 3 Zrotation Xrotation Yrotation
										JOINT LeftHandIndex3
										{
											OFFSET	-0.004284	 0.038165	 0.000551
											CHANNELS 3 Zrotation Xrotation Yrotation
											End Site
											{
												OFFSET	-0.004284	 0.038165	 0.000551
											}
										}
									}
								}
							}
						}
					}
				}
				JOINT Neck
				{
					OFFSET	 0.000000	 0.176489	 0.000000
					CHANNELS 3 Zrotation Xrotation Yrotation
					JOINT Head
					{
						OFFSET	 0.000000	 0.077941	 0.001747
						CHANNELS 3 Zrotation Xrotation Yrotation
						End Site
						{
							OFFSET	 0.000000	 0.077941	 0.001747
						}
					}
				}
				JOINT RightShoulder
				{
					OFFSET	-0.080363	 0.159706	-0.000306
					CHANNELS 3 Zrotation Xrotation Yrotation
					JOINT RightArm
					{
						OFFSET	 0.000000	 0.164196	 0.000000
						CHANNELS 3 Zrotation Xrotation Yrotation
						JOINT RightForeArm
						{
							OFFSET	 0.000000	 0.365611	 0.000000
							CHANNELS 3 Zrotation Xrotation Yrotation
							JOINT RightHand
							{
								OFFSET	 0.000000	 0.360648	 0.000000
								CHANNELS 3 Zrotation Xrotation Yrotation
								JOINT RightHandIndex1
								{
									OFFSET	 0.000000	 0.069977	 0.000000
									CHANNELS 3 Zrotation Xrotation Yrotation
									JOINT RightHandIndex2
									{
										OFFSET	 0.000000	 0.052305	 0.000000
										CHANNELS 3 Zrotation Xrotation Yrotation
										JOINT RightHandIndex3
										{
											OFFSET	 0.009002	 0.042196	 0.000782
											CHANNELS 3 Zrotation Xrotation Yrotation
											End Site
											{
												OFFSET	 0.009002	 0.042196	 0.000782
											}
										}
									}
								}
							}
						}
					}
				}
			}
		}
	}
}
MOTION
Frames:    10
Frame Time: 0.03333334
 0.000380	 1.271132	 0.063366	 0.365376	-0.006069	 179.993400	-178.781400	 2.018005	-0.001587	 2.677701	-12.436000	 0.034347	-4.471379	 71.669030	 4.656596	 1.292262	 28.425850	-2.713146	 179.297000	 1.687277	 0.059197	-2.347692	-11.268410	 0.034607	 4.440406	 70.893890	-4.752130	-1.288183	 28.361890	 2.710176	-0.134227	 2.925584	-9.418351	 2.111438	 3.105436	-4.847270	-2.012600	-3.894804	 14.186380	-101.478000	 1.740672	 90.353390	-0.627793	 61.605160	 3.416445	 6.729160	 13.776920	 0.641219	-6.753590	-23.119060	-35.613780	-6.580301	 5.266122	 0.000000	 0.000000	 0.000000	 0.000000	 0.000000	 0.000000	 0.000000	 0.089846	-3.783161	 0.005928	-0.025351	 0.823440	 3.526726	 101.796200	-0.213312	-89.955440	-7.123909	 66.674990	-1.741977	-5.955435	 9.044513	 1.753103	-23.354190	-9.752678	-30.359530	 15.208500	 5.323790	 0.000000	 0.000000	 0.000000	 0.000000	 0.000000	 0.000000	 0.000000
 0.000344	 1.271770	 0.063324	 0.378865	-0.006677	 179.992700	-178.770700	 2.027515	-0.002793	 2.681832	-12.454570	 0.035236	-4.447832	 71.569660	 4.633622	 1.292262	 28.425850	-2.713146	 179.305300	 1.669046	 0.062255	-2.339334	-11.229330	 0.036234	 4.415615	 70.764560	-4.732822	-1.288183	 28.361890	 2.710176	-0.109427	 2.788190	-9.391558	 2.084988	 3.577339	-4.860838	-1.955267	-4.499613	 14.159110	-101.478000	 1.740665	 90.353370	-1.490215	 61.169230	 4.207411	 7.116244	 14.532870	 0.546539	-6.552614	-24.001900	-35.657140	-6.580301	 5.266122	 0.000000	 0.000000	 0.000000	 0.000000	 0.000000	 0.000000	 0.000000	 0.089846	-3.783161	 0.005928	-0.023136	 0.753894	 3.515436	 101.796200	-0.213315	-89.955440	-5.317018	 65.846830	-3.409987	-7.149022	 10.809650	 1.939736	-23.757900	-10.700150	-30.796020	 15.208500	 5.323790	 0.000000	 0.000000	 0.000000	 0.000000	 0.000000	 0.000000	 0.000000
 0.000303	 1.272569	 0.063271	 0.394294	-0.007062	 179.992600	-178.757900	 2.036100	-0.004482	 2.685588	-12.471480	 0.036047	-4.420101	 71.442540	 4.607403	 1.292262	 28.425850	-2.713146	 179.314300	 1.645466	 0.066117	-2.328744	-11.179820	 0.038293	 4.382995	 70.603130	-4.707056	-1.288183	 28.361890	 2.710176	-0.077861	 2.617157	-9.321286	 2.043790	 4.166080	-4.860497	-1.875983	-5.256171	 14.071680	-101.478000	 1.740658	 90.353370	-2.517207	 60.647680	 5.147864	 7.572795	 15.417210	 0.428616	-6.311478	-25.204960	-35.598870	-6.580301	 5.266122	 0.000000	 0.000000	 0.000000	 0.000000	 0.000000	 0.000000	 0.000000	 0.089846	-3.783161	 0.005928	-0.020406	 0.670296	 3.487483	 101.796200	-0.213304	-89.955440	-3.233483	 64.749900	-5.325965	-8.715751	 13.087970	 2.232168	-24.365110	-12.047990	-31.351480	 15.208500	 5.323790	 0.000000	 0.000000	 0.000000	 0.000000	 0.000000	 0.000000	 0.000000
 0.000271	 1.273276	 0.063225	 0.406264	-0.007887	 179.992500	-178.747500	 2.041141	-0.006200	 2.687509	-12.480100	 0.036460	-4.395203	 71.327260	 4.584439	 1.292262	 28.425850	-2.713146	 179.320700	 1.625087	 0.069406	-2.319373	-11.135970	 0.040108	 4.354140	 70.460820	-4.684365	-1.288183	 28.361890	 2.710176	-0.050026	 2.466404	-9.224439	 2.000502	 4.684442	-4.843171	-1.799594	-5.925793	 13.944730	-101.478000	 1.740662	 90.353390	-3.385483	 60.205460	 5.942980	 7.954425	 16.149760	 0.324846	-6.104754	-26.362110	-35.444850	-6.580301	 5.266122	 0.000000	 0.000000	 0.000000	 0.000000	 0.000000	 0.000000	 0.000000	 0.089846	-3.783161	 0.005928	-0.018051	 0.599409	 3.449845	 101.796200	-0.213314	-89.955450	-1.554108	 63.732030	-6.863303	-10.169460	 15.156620	 2.551167	-25.002830	-13.387620	-31.858120	 15.208500	 5.323790	 0.000000	 0.000000	 0.000000	 0.000000	 0.000000	 0.000000	 0.000000
 0.000243	 1.274005	 0.063178	 0.416835	-0.008800	 179.992200	-178.737800	 2.043204	-0.008035	 2.688020	-12.482410	 0.036569	-4.368551	 71.205670	 4.560323	 1.292262	 28.425850	-2.713146	 179.325700	 1.604620	 0.072682	-2.309909	-11.091690	 0.041926	 4.324816	 70.315160	-4.661429	-1.288183	 28.361890	 2.710176	-0.021692	 2.312146	-9.090405	 1.949204	 5.216083	-4.808077	-1.715247	-6.615561	 13.764390	-101.478000	 1.740682	 90.353400	-4.246242	 59.766740	 6.730234	 8.328014	 16.861250	 0.218715	-5.891567	-27.646060	-35.184140	-6.580301	 5.266122	 0.000000	 0.000000	 0.000000	 0.000000	 0.000000	 0.000000	 0.000000	 0.089846	-3.783161	 0.005928	-0.015704	 0.529385	 3.398349	 101.796200	-0.213311	-89.955450	 0.019298	 62.641890	-8.295590	-11.739410	 17.335700	 2.946445	-25.762010	-14.913080	-32.405320	 15.208500	 5.323790	 0.000000	 0.000000	 0.000000	 0.000000	 0.000000	 0.000000	 0.000000
 0.000221	 1.274726	 0.063130	 0.425205	-0.009482	 179.992100	-178.729300	 2.041576	-0.010176	 2.686966	-12.477660	 0.036344	-4.342336	 71.082250	 4.537324	 1.292262	 28.425850	-2.713146	 179.328900	 1.584502	 0.075868	-2.300738	-11.048760	 0.043692	 4.295863	 70.172000	-4.638828	-1.288183	 28.361890	 2.710176	 0.005639	 2.160152	-8.923060	 1.891508	 5.740611	-4.755523	-1.626456	-7.298396	 13.535030	-101.478000	 1.740678	 90.353380	-5.068916	 59.347880	 7.481891	 8.680116	 17.526290	 0.114557	-5.671992	-29.008350	-34.821330	-6.580301	 5.266122	 0.000000	 0.000000	 0.000000	 0.000000	 0.000000	 0.000000	 0.000000	 0.089846	-3.783161	 0.005928	-0.013478	 0.463063	 3.334342	 101.796200	-0.213314	-89.955450	 1.425989	 61.524960	-9.568172	-13.374340	 19.538800	 3.412085	-26.617940	-16.571960	-32.981680	 15.208500	 5.323790	 0.000000	 0.000000	 0.000000	 0.000000	 0.000000	 0.000000	 0.000000
 0.000205	 1.275452	 0.063083	 0.431286	-0.010535	 179.991900	-178.722100	 2.036583	-0.012505	 2.684173	-12.465110	 0.035740	-4.315080	 70.954730	 4.513964	 1.292262	 28.425850	-2.713146	 179.330200	 1.565658	 0.078969	-2.291939	-11.007560	 0.045372	 4.267385	 70.029680	-4.616702	-1.288183	 28.361890	 2.710176	 0.031968	 2.009180	-8.719007	 1.827180	 6.262832	-4.683457	-1.532797	-7.982812	 13.251800	-101.478000	 1.740669	 90.353390	-5.868869	 58.942330	 8.211766	 9.016959	 18.157270	 0.011310	-5.430663	-30.466980	-34.345300	-6.580301	 5.266122	 0.000000	 0.000000	 0.000000	 0.000000	 0.000000	 0.000000	 0.000000	 0.089846	-3.783161	 0.005928	-0.011356	 0.399462	 3.256568	 101.796200	-0.213319	-89.955440	 2.694866	 60.367310	-10.706760	-15.109960	 21.797970	 3.965613	-27.584860	-18.391690	-33.608730	 15.208500	 5.323790	 0.000000	 0.000000	 0.000000	 0.000000	 0.000000	 0.000000	 0.000000
 0.000196	 1.276191	 0.063035	 0.434692	-0.011442	 179.992100	-178.716500	 2.027083	-0.015102	 2.679347	-12.443410	 0.034699	-4.287814	 70.820740	 4.491591	 1.292262	 28.425850	-2.713146	 179.329200	 1.547484	 0.082025	-2.283525	-10.968150	 0.046976	 4.237712	 69.886650	-4.593299	-1.288183	 28.361890	 2.710176	 0.057027	 1.857422	-8.473457	 1.754878	 6.790699	-4.589346	-1.433213	-8.678029	 12.906640	-101.478000	 1.740663	 90.353370	-6.658415	 58.543970	 8.931556	 9.343754	 18.764590	-0.092165	-5.148161	-32.042500	-33.737530	-6.580301	 5.266122	 0.000000	 0.000000	 0.000000	 0.000000	 0.000000	 0.000000	 0.000000	 0.089846	-3.783161	 0.005928	-0.009330	 0.337888	 3.163157	 101.796200	-0.213307	-89.955450	 3.843322	 59.155170	-11.726050	-16.987440	 24.143840	 4.631949	-28.683120	-20.405990	-34.313300	 15.208500	 5.323790	 0.000000	 0.000000	 0.000000	 0.000000	 0.000000	 0.000000	 0.000000
 0.000195	 1.276851	 0.062994	 0.435191	-0.012417	 179.992200	-178.713000	 2.015069	-0.017636	 2.673337	-12.416390	 0.033406	-4.262729	 70.697520	 4.471524	 1.292262	 28.425850	-2.713146	 179.326200	 1.532773	 0.084557	-2.276602	-10.935710	 0.048292	 4.211586	 69.760730	-4.572654	-1.288183	 28.361890	 2.710176	 0.077666	 1.723567	-8.220373	 1.684313	 7.257484	-4.485981	-1.341089	-9.296051	 12.547490	-101.478000	 1.740679	 90.353390	-7.343310	 58.201290	 9.555199	 9.621710	 19.277460	-0.182737	-4.847795	-33.522880	-33.078430	-6.580301	 5.266122	 0.000000	 0.000000	 0.000000	 0.000000	 0.000000	 0.000000	 0.000000	 0.089846	-3.783161	 0.005928	-0.007648	 0.285677	 3.067109	 101.796200	-0.213326	-89.955440	 4.750194	 58.046310	-12.519530	-18.772210	 26.276400	 5.326671	-29.764600	-22.347240	-35.012920	 15.208500	 5.323790	 0.000000	 0.000000	 0.000000	 0.000000	 0.000000	 0.000000	 0.000000
 0.000210	 1.277526	 0.062953	 0.430382	-0.014370	 179.993100	-178.711400	 1.991322	-0.020610	 2.661391	-12.362650	 0.030842	-4.235802	 70.560710	 4.452231	 1.292262	 28.425850	-2.713146	 179.318100	 1.516498	 0.086771	-2.268552	-10.898000	 0.049816	 4.181128	 69.632530	-4.548412	-1.288183	 28.361890	 2.710176	 0.093627	 1.591165	-7.934748	 1.605391	 7.717449	-4.363376	-1.245243	-9.909181	 12.137760	-101.478000	 1.740658	 90.353370	-8.008160	 57.872880	 10.159900	 9.883373	 19.756960	-0.270169	-4.482257	-35.064070	-32.296510	-6.580301	 5.266122	 0.000000	 0.000000	 0.000000	 0.000000	 0.000000	 0.000000	 0.000000	 0.089846	-3.783161	 0.005928	-0.006099	 0.236176	 2.958701	 101.796200	-0.213320	-89.955440	 5.543645	 56.922770	-13.201480	-20.665000	 28.432270	 6.124890	-30.947460	-24.421740	-35.792130	 15.208500	 5.323790	 0.000000	 0.000000	 0.000000	 0.000000	 0.000000	 0.000000	 0.000000
